<svg width="20" height="17" viewBox="0 0 20 17" fill="none" xmlns="http://www.w3.org/2000/svg">
<path d="M16.875 0C17.7038 0 18.4987 0.344436 19.0847 0.957536C19.6708 1.57064 20 2.40218 20 3.26923V13.7308C20 14.5978 19.6708 15.4294 19.0847 16.0425C18.4987 16.6556 17.7038 17 16.875 17H3.125C2.2962 17 1.50134 16.6556 0.915291 16.0425C0.32924 15.4294 0 14.5978 0 13.7308V3.26923C0 2.40218 0.32924 1.57064 0.915291 0.957536C1.50134 0.344436 2.2962 0 3.125 0H16.875ZM18.75 5.17977L10.3175 10.3713C10.2378 10.4203 10.1487 10.4501 10.0566 10.4587C9.9645 10.4673 9.87175 10.4544 9.785 10.421L9.6825 10.3713L1.25 5.18238V13.7308C1.25 14.251 1.44754 14.7499 1.79917 15.1178C2.15081 15.4856 2.62772 15.6923 3.125 15.6923H16.875C17.3723 15.6923 17.8492 15.4856 18.2008 15.1178C18.5525 14.7499 18.75 14.251 18.75 13.7308V5.17977ZM16.875 1.30769H3.125C2.62772 1.30769 2.15081 1.51435 1.79917 1.88221C1.44754 2.25007 1.25 2.749 1.25 3.26923V3.66415L10 9.04923L18.75 3.66154V3.26923C18.75 2.749 18.5525 2.25007 18.2008 1.88221C17.8492 1.51435 17.3723 1.30769 16.875 1.30769Z" fill="white"/>
</svg>
