<svg width="38" height="38" viewBox="0 0 38 38" fill="none" xmlns="http://www.w3.org/2000/svg">
<path d="M29.3835 37.1586C29.0136 37.1575 28.6449 37.117 28.2837 37.0376C21.4063 35.6149 15.0703 32.2792 10.0051 27.4144C5.04799 22.5389 1.60996 16.3313 0.106993 9.54277C-0.0702259 8.69671 -0.0267294 7.81928 0.233298 6.9949C0.493326 6.17051 0.961133 5.42692 1.59171 4.83566L5.99088 0.601458C6.21558 0.388965 6.48255 0.226242 6.77439 0.123909C7.06623 0.0215764 7.37637 -0.0180655 7.68456 0.00757058C8.00412 0.0409085 8.3125 0.143849 8.58801 0.309154C8.86351 0.474459 9.09946 0.698113 9.27926 0.96439L14.7782 9.09186C14.9844 9.40721 15.084 9.78043 15.0622 10.1566C15.0404 10.5328 14.8985 10.892 14.6572 11.1815L11.8968 14.4808C12.9962 16.9141 14.5531 19.1132 16.4829 20.9586C18.4002 22.8709 20.6663 24.3979 23.1586 25.4568L26.579 22.7403C26.8663 22.5132 27.2158 22.379 27.5812 22.3554C27.9466 22.3319 28.3105 22.4201 28.6246 22.6083L36.928 27.9753C37.213 28.1454 37.4557 28.3778 37.6381 28.6551C37.8205 28.9324 37.9378 29.2473 37.9811 29.5764C38.0245 29.9054 37.9929 30.24 37.8886 30.555C37.7843 30.8701 37.6101 31.1575 37.3789 31.3956L33.0898 35.6408C32.6025 36.1257 32.0243 36.5093 31.3882 36.7698C30.7521 37.0303 30.0708 37.1624 29.3835 37.1586ZM7.50859 2.18516L3.10943 6.41936C2.75469 6.7499 2.4921 7.16709 2.34747 7.62988C2.20285 8.09268 2.18118 8.58515 2.28458 9.05886C3.68211 15.429 6.8946 21.2581 11.5338 25.8417C16.3005 30.4185 22.263 33.5561 28.7346 34.893C29.2244 34.9954 29.732 34.9746 30.2119 34.8326C30.6918 34.6906 31.1289 34.4317 31.4841 34.0791L35.7733 29.8339L27.7558 24.6539L24.0825 27.5794C23.9418 27.6907 23.7761 27.7659 23.5998 27.7985C23.4234 27.8311 23.2418 27.82 23.0707 27.7663C20.0206 26.6426 17.2566 24.8587 14.9762 22.5423C12.6175 20.3397 10.7867 17.6329 9.6202 14.6238C9.57085 14.4416 9.56921 14.2498 9.61543 14.0669C9.66166 13.8839 9.7542 13.7159 9.88414 13.579L12.8536 10.0267L7.50859 2.18516Z" fill="white"/>
</svg>
